<svg width="1919" height="630" viewBox="0 0 1919 630" fill="none" xmlns="http://www.w3.org/2000/svg">
<rect x="-1" width="1920" height="630" fill="#F0F4F8"/>
<g opacity="0.8" clip-path="url(#clip0_55_1093)">
<g filter="url(#filter0_b_55_1093)">
<path d="M1722 411C1722 411 1695.85 419.925 1694.26 420.632C1688.26 423.286 1683.15 427.641 1679.55 433.168C1675.96 438.695 1674.03 445.157 1674 451.768V522.326V562C1674 562 1700.09 553.075 1701.76 552.368C1707.74 549.717 1712.84 545.377 1716.43 539.871C1720.03 534.364 1721.97 527.926 1722.02 521.333V481.356L1722 411Z" fill="url(#paint0_linear_55_1093)" fill-opacity="0.6"/>
<path d="M1722 411C1722 411 1695.85 419.925 1694.26 420.632C1688.26 423.286 1683.15 427.641 1679.55 433.168C1675.96 438.695 1674.03 445.157 1674 451.768V522.326V562C1674 562 1700.09 553.075 1701.76 552.368C1707.74 549.717 1712.84 545.377 1716.43 539.871C1720.03 534.364 1721.97 527.926 1722.02 521.333V481.356L1722 411Z" fill="#60AAFB" fill-opacity="0.2"/>
<path d="M1674.96 561.142L1674.5 561.3V522.326V451.77C1674.53 445.254 1676.43 438.887 1679.97 433.441C1683.52 427.994 1688.55 423.704 1694.46 421.09L1694.46 421.089C1694.84 420.923 1696.74 420.242 1699.43 419.301C1702.1 418.365 1705.52 417.183 1708.89 416.024C1712.26 414.864 1715.57 413.726 1718.05 412.879C1719.29 412.455 1720.32 412.103 1721.03 411.858L1721.5 411.699L1721.52 481.356V481.356V521.331C1721.47 527.828 1719.55 534.172 1716.01 539.598C1712.47 545.022 1707.45 549.298 1701.56 551.909C1700.73 552.259 1693.83 554.654 1687.09 556.976C1683.72 558.136 1680.41 559.274 1677.94 560.121C1676.7 560.545 1675.68 560.897 1674.96 561.142Z" stroke="url(#paint1_linear_55_1093)" stroke-opacity="0.6"/>
<path d="M1674.96 561.142L1674.5 561.3V522.326V451.77C1674.53 445.254 1676.43 438.887 1679.97 433.441C1683.52 427.994 1688.55 423.704 1694.46 421.09L1694.46 421.089C1694.84 420.923 1696.74 420.242 1699.43 419.301C1702.1 418.365 1705.52 417.183 1708.89 416.024C1712.26 414.864 1715.57 413.726 1718.05 412.879C1719.29 412.455 1720.32 412.103 1721.03 411.858L1721.5 411.699L1721.52 481.356V481.356V521.331C1721.47 527.828 1719.55 534.172 1716.01 539.598C1712.47 545.022 1707.45 549.298 1701.56 551.909C1700.73 552.259 1693.83 554.654 1687.09 556.976C1683.72 558.136 1680.41 559.274 1677.94 560.121C1676.7 560.545 1675.68 560.897 1674.96 561.142Z" stroke="url(#paint2_linear_55_1093)"/>
</g>
</g>
<g opacity="0.8" clip-path="url(#clip1_55_1093)">
<g filter="url(#filter1_b_55_1093)">
<path d="M1603.52 238.076C1591.54 243.329 1581.34 251.942 1574.15 262.875C1566.96 273.807 1563.09 286.59 1563 299.678V305.825V415.134C1563 415.134 1615.27 397.428 1618.48 396.058C1630.45 390.798 1640.65 382.183 1647.84 371.252C1655.03 360.321 1658.9 347.542 1659 334.455V331.983V219C1659 219 1606.69 236.706 1603.52 238.076Z" fill="url(#paint3_linear_55_1093)" fill-opacity="0.6"/>
<path d="M1603.52 238.076C1591.54 243.329 1581.34 251.942 1574.15 262.875C1566.96 273.807 1563.09 286.59 1563 299.678V305.825V415.134C1563 415.134 1615.27 397.428 1618.48 396.058C1630.45 390.798 1640.65 382.183 1647.84 371.252C1655.03 360.321 1658.9 347.542 1659 334.455V331.983V219C1659 219 1606.69 236.706 1603.52 238.076Z" fill="#60AAFB" fill-opacity="0.2"/>
<path d="M1656.91 220.237L1658.5 219.697V331.983V334.454C1658.4 347.443 1654.56 360.128 1647.42 370.977C1640.28 381.827 1630.16 390.378 1618.28 395.599C1616.69 396.277 1602.86 401.034 1589.38 405.636C1582.64 407.935 1576.01 410.191 1571.06 411.872C1568.58 412.713 1566.53 413.41 1565.09 413.897L1563.5 414.436V305.825V299.68C1563.59 286.689 1567.43 274 1574.57 263.149C1581.71 252.298 1591.83 243.748 1603.72 238.534C1605.29 237.857 1619.12 233.1 1632.61 228.497C1639.35 226.199 1645.98 223.943 1650.94 222.261C1653.41 221.421 1655.47 220.724 1656.91 220.237Z" stroke="url(#paint4_linear_55_1093)" stroke-opacity="0.6"/>
<path d="M1656.91 220.237L1658.5 219.697V331.983V334.454C1658.4 347.443 1654.56 360.128 1647.42 370.977C1640.28 381.827 1630.16 390.378 1618.28 395.599C1616.69 396.277 1602.86 401.034 1589.38 405.636C1582.64 407.935 1576.01 410.191 1571.06 411.872C1568.58 412.713 1566.53 413.41 1565.09 413.897L1563.5 414.436V305.825V299.68C1563.59 286.689 1567.43 274 1574.57 263.149C1581.71 252.298 1591.83 243.748 1603.72 238.534C1605.29 237.857 1619.12 233.1 1632.61 228.497C1639.35 226.199 1645.98 223.943 1650.94 222.261C1653.41 221.421 1655.47 220.724 1656.91 220.237Z" stroke="url(#paint5_linear_55_1093)"/>
</g>
</g>
<g opacity="0.8" clip-path="url(#clip2_55_1093)">
<g filter="url(#filter2_b_55_1093)">
<path d="M1651.37 179.511C1644.76 182.406 1639.13 187.152 1635.16 193.176C1631.19 199.2 1629.05 206.243 1629 213.455V216.843V277.074C1629 277.074 1657.86 267.317 1659.63 266.563C1666.24 263.664 1671.87 258.917 1675.84 252.894C1679.81 246.871 1681.95 239.829 1682 232.618V231.256V169C1682 169 1653.12 178.756 1651.37 179.511Z" fill="url(#paint6_linear_55_1093)" fill-opacity="0.6"/>
<path d="M1651.37 179.511C1644.76 182.406 1639.13 187.152 1635.16 193.176C1631.19 199.2 1629.05 206.243 1629 213.455V216.843V277.074C1629 277.074 1657.86 267.317 1659.63 266.563C1666.24 263.664 1671.87 258.917 1675.84 252.894C1679.81 246.871 1681.95 239.829 1682 232.618V231.256V169C1682 169 1653.12 178.756 1651.37 179.511Z" fill="#60AAFB" fill-opacity="0.2"/>
<path d="M1680.92 169.894L1681.5 169.697V231.256V232.616C1681.45 239.73 1679.34 246.677 1675.42 252.619C1671.5 258.561 1665.95 263.244 1659.43 266.104C1658.56 266.475 1650.94 269.09 1643.49 271.628C1639.77 272.894 1636.11 274.137 1633.38 275.064C1632.01 275.527 1630.88 275.911 1630.08 276.179L1629.5 276.377V216.843V213.457C1629.55 206.342 1631.66 199.394 1635.57 193.451C1639.49 187.508 1645.05 182.826 1651.57 179.97C1652.43 179.601 1660.05 176.985 1667.5 174.446C1671.22 173.179 1674.89 171.936 1677.62 171.01C1678.99 170.547 1680.12 170.163 1680.92 169.894Z" stroke="url(#paint7_linear_55_1093)" stroke-opacity="0.6"/>
<path d="M1680.92 169.894L1681.5 169.697V231.256V232.616C1681.45 239.73 1679.34 246.677 1675.42 252.619C1671.5 258.561 1665.95 263.244 1659.43 266.104C1658.56 266.475 1650.94 269.09 1643.49 271.628C1639.77 272.894 1636.11 274.137 1633.38 275.064C1632.01 275.527 1630.88 275.911 1630.08 276.179L1629.5 276.377V216.843V213.457C1629.55 206.342 1631.66 199.394 1635.57 193.451C1639.49 187.508 1645.05 182.826 1651.57 179.97C1652.43 179.601 1660.05 176.985 1667.5 174.446C1671.22 173.179 1674.89 171.936 1677.62 171.01C1678.99 170.547 1680.12 170.163 1680.92 169.894Z" stroke="url(#paint8_linear_55_1093)"/>
</g>
</g>
<g opacity="0.8" clip-path="url(#clip3_55_1093)">
<g filter="url(#filter3_b_55_1093)">
<path d="M1749.71 303.477C1746.84 304.71 1744.39 306.731 1742.67 309.297C1740.95 311.863 1740.02 314.863 1740 317.935V319.377V345.031C1740 345.031 1752.52 340.876 1753.29 340.554C1756.16 339.32 1758.6 337.298 1760.33 334.733C1762.05 332.167 1762.98 329.168 1763 326.097V325.516V299C1763 299 1750.47 303.155 1749.71 303.477Z" fill="url(#paint9_linear_55_1093)" fill-opacity="0.6"/>
<path d="M1749.71 303.477C1746.84 304.71 1744.39 306.731 1742.67 309.297C1740.95 311.863 1740.02 314.863 1740 317.935V319.377V345.031C1740 345.031 1752.52 340.876 1753.29 340.554C1756.16 339.32 1758.6 337.298 1760.33 334.733C1762.05 332.167 1762.98 329.168 1763 326.097V325.516V299C1763 299 1750.47 303.155 1749.71 303.477Z" fill="#60AAFB" fill-opacity="0.2"/>
<path d="M1761.19 300.129C1761.72 299.953 1762.16 299.804 1762.5 299.693V325.516V326.095C1762.48 329.067 1761.58 331.97 1759.91 334.454C1758.24 336.938 1755.88 338.897 1753.1 340.094C1752.72 340.249 1749.44 341.356 1746.2 342.439C1744.59 342.979 1743 343.508 1741.81 343.903C1741.28 344.078 1740.83 344.227 1740.5 344.338V319.377V317.936C1740.52 314.964 1741.42 312.06 1743.09 309.576C1744.76 307.091 1747.12 305.132 1749.9 303.937C1750.27 303.784 1753.55 302.676 1756.8 301.592C1758.41 301.053 1760 300.523 1761.19 300.129Z" stroke="url(#paint10_linear_55_1093)" stroke-opacity="0.6"/>
<path d="M1761.19 300.129C1761.72 299.953 1762.16 299.804 1762.5 299.693V325.516V326.095C1762.48 329.067 1761.58 331.97 1759.91 334.454C1758.24 336.938 1755.88 338.897 1753.1 340.094C1752.72 340.249 1749.44 341.356 1746.2 342.439C1744.59 342.979 1743 343.508 1741.81 343.903C1741.28 344.078 1740.83 344.227 1740.5 344.338V319.377V317.936C1740.52 314.964 1741.42 312.06 1743.09 309.576C1744.76 307.091 1747.12 305.132 1749.9 303.937C1750.27 303.784 1753.55 302.676 1756.8 301.592C1758.41 301.053 1760 300.523 1761.19 300.129Z" stroke="url(#paint11_linear_55_1093)"/>
</g>
</g>
<g opacity="0.8" clip-path="url(#clip4_55_1093)">
<g filter="url(#filter4_b_55_1093)">
<path d="M251.999 303C251.999 303 212.77 316.24 210.392 317.289C201.389 321.226 193.724 327.686 188.329 335.885C182.934 344.084 180.041 353.669 180 363.478V468.146V527C180 527 219.129 513.76 221.633 512.711C230.609 508.78 238.254 502.341 243.646 494.173C249.039 486.004 251.948 476.453 252.024 466.672V407.368L251.999 303Z" fill="url(#paint12_linear_55_1093)" fill-opacity="0.6"/>
<path d="M251.999 303C251.999 303 212.77 316.24 210.392 317.289C201.389 321.226 193.724 327.686 188.329 335.885C182.934 344.084 180.041 353.669 180 363.478V468.146V527C180 527 219.129 513.76 221.633 512.711C230.609 508.78 238.254 502.341 243.646 494.173C249.039 486.004 251.948 476.453 252.024 466.672V407.368L251.999 303Z" fill="#60AAFB" fill-opacity="0.2"/>
<path d="M181.526 525.956L180.5 526.303V468.146V363.479C180.541 353.768 183.406 344.277 188.747 336.16C194.089 328.041 201.678 321.645 210.592 317.747L210.594 317.746C211.164 317.495 214.032 316.48 218.06 315.086C222.071 313.698 227.197 311.945 232.249 310.224C237.301 308.504 242.278 306.816 245.993 305.559C247.85 304.93 249.392 304.409 250.469 304.045L251.5 303.697L251.524 407.368V407.369V466.67C251.449 476.354 248.568 485.81 243.229 493.897C237.89 501.984 230.322 508.358 221.436 512.252C220.187 512.773 209.818 516.333 199.716 519.776C194.669 521.496 189.7 523.184 185.992 524.441C184.139 525.07 182.601 525.591 181.526 525.956Z" stroke="url(#paint13_linear_55_1093)" stroke-opacity="0.6"/>
<path d="M181.526 525.956L180.5 526.303V468.146V363.479C180.541 353.768 183.406 344.277 188.747 336.16C194.089 328.041 201.678 321.645 210.592 317.747L210.594 317.746C211.164 317.495 214.032 316.48 218.06 315.086C222.071 313.698 227.197 311.945 232.249 310.224C237.301 308.504 242.278 306.816 245.993 305.559C247.85 304.93 249.392 304.409 250.469 304.045L251.5 303.697L251.524 407.368V407.369V466.67C251.449 476.354 248.568 485.81 243.229 493.897C237.89 501.984 230.322 508.358 221.436 512.252C220.187 512.773 209.818 516.333 199.716 519.776C194.669 521.496 189.7 523.184 185.992 524.441C184.139 525.07 182.601 525.591 181.526 525.956Z" stroke="url(#paint14_linear_55_1093)"/>
</g>
</g>
<g opacity="0.8" clip-path="url(#clip5_55_1093)">
<g filter="url(#filter5_b_55_1093)">
<path d="M173.814 261.501C164.705 265.495 156.948 272.043 151.48 280.354C146.011 288.664 143.066 298.382 143 308.332V313.005V396.102C143 396.102 182.749 382.642 185.185 381.6C194.29 377.601 202.044 371.052 207.512 362.743C212.979 354.433 215.927 344.718 215.999 334.77V332.89V247C215.999 247 176.225 260.46 173.814 261.501Z" fill="url(#paint15_linear_55_1093)" fill-opacity="0.6"/>
<path d="M173.814 261.501C164.705 265.495 156.948 272.043 151.48 280.354C146.011 288.664 143.066 298.382 143 308.332V313.005V396.102C143 396.102 182.749 382.642 185.185 381.6C194.29 377.601 202.044 371.052 207.512 362.743C212.979 354.433 215.927 344.718 215.999 334.77V332.89V247C215.999 247 176.225 260.46 173.814 261.501Z" fill="#60AAFB" fill-opacity="0.2"/>
<path d="M214.446 248.054L215.499 247.697V332.89V334.768C215.427 344.619 212.508 354.239 207.094 362.468C201.68 370.696 194.002 377.182 184.986 381.142C183.778 381.657 173.27 385.269 163.017 388.768C157.897 390.516 152.852 392.231 149.088 393.509C147.206 394.148 145.644 394.678 144.552 395.048L143.5 395.404V313.005V308.334C143.566 298.481 146.482 288.858 151.898 280.628C157.313 272.399 164.994 265.915 174.014 261.96C175.201 261.447 185.712 257.834 195.972 254.333C201.095 252.586 206.141 250.871 209.908 249.593C211.791 248.954 213.354 248.424 214.446 248.054Z" stroke="url(#paint16_linear_55_1093)" stroke-opacity="0.6"/>
<path d="M214.446 248.054L215.499 247.697V332.89V334.768C215.427 344.619 212.508 354.239 207.094 362.468C201.68 370.696 194.002 377.182 184.986 381.142C183.778 381.657 173.27 385.269 163.017 388.768C157.897 390.516 152.852 392.231 149.088 393.509C147.206 394.148 145.644 394.678 144.552 395.048L143.5 395.404V313.005V308.334C143.566 298.481 146.482 288.858 151.898 280.628C157.313 272.399 164.994 265.915 174.014 261.96C175.201 261.447 185.712 257.834 195.972 254.333C201.095 252.586 206.141 250.871 209.908 249.593C211.791 248.954 213.354 248.424 214.446 248.054Z" stroke="url(#paint17_linear_55_1093)"/>
</g>
</g>
<g opacity="0.8" clip-path="url(#clip6_55_1093)">
<g filter="url(#filter6_b_55_1093)">
<path d="M272.819 177.547C269.325 179.075 266.35 181.58 264.253 184.759C262.155 187.939 261.025 191.656 261 195.463V197.25V229.039C261 229.039 276.246 223.89 277.181 223.491C280.673 221.962 283.647 219.456 285.744 216.277C287.841 213.099 288.972 209.382 289 205.576V204.857V172C289 172 273.744 177.149 272.819 177.547Z" fill="url(#paint18_linear_55_1093)" fill-opacity="0.6"/>
<path d="M272.819 177.547C269.325 179.075 266.35 181.58 264.253 184.759C262.155 187.939 261.025 191.656 261 195.463V197.25V229.039C261 229.039 276.246 223.89 277.181 223.491C280.673 221.962 283.647 219.456 285.744 216.277C287.841 213.099 288.972 209.382 289 205.576V204.857V172C289 172 273.744 177.149 272.819 177.547Z" fill="#60AAFB" fill-opacity="0.2"/>
<path d="M286.762 173.284C287.483 173.04 288.081 172.838 288.5 172.697V204.857V205.574C288.472 209.283 287.37 212.904 285.327 216.002C283.283 219.1 280.385 221.541 276.982 223.032C276.527 223.225 272.519 224.6 268.579 225.941C266.615 226.61 264.68 227.266 263.236 227.755C262.516 227.998 261.918 228.201 261.5 228.342V197.25V195.464C261.525 191.755 262.626 188.133 264.67 185.035C266.714 181.937 269.613 179.495 273.018 178.006C273.463 177.815 277.472 176.44 281.417 175.098C283.382 174.429 285.317 173.773 286.762 173.284Z" stroke="url(#paint19_linear_55_1093)" stroke-opacity="0.6"/>
<path d="M286.762 173.284C287.483 173.04 288.081 172.838 288.5 172.697V204.857V205.574C288.472 209.283 287.37 212.904 285.327 216.002C283.283 219.1 280.385 221.541 276.982 223.032C276.527 223.225 272.519 224.6 268.579 225.941C266.615 226.61 264.68 227.266 263.236 227.755C262.516 227.998 261.918 228.201 261.5 228.342V197.25V195.464C261.525 191.755 262.626 188.133 264.67 185.035C266.714 181.937 269.613 179.495 273.018 178.006C273.463 177.815 277.472 176.44 281.417 175.098C283.382 174.429 285.317 173.773 286.762 173.284Z" stroke="url(#paint20_linear_55_1093)"/>
</g>
</g>
<defs>
<filter id="filter0_b_55_1093" x="1648" y="385" width="100.016" height="203" filterUnits="userSpaceOnUse" color-interpolation-filters="sRGB">
<feFlood flood-opacity="0" result="BackgroundImageFix"/>
<feGaussianBlur in="BackgroundImageFix" stdDeviation="13"/>
<feComposite in2="SourceAlpha" operator="in" result="effect1_backgroundBlur_55_1093"/>
<feBlend mode="normal" in="SourceGraphic" in2="effect1_backgroundBlur_55_1093" result="shape"/>
</filter>
<filter id="filter1_b_55_1093" x="1537" y="193" width="147.999" height="248.134" filterUnits="userSpaceOnUse" color-interpolation-filters="sRGB">
<feFlood flood-opacity="0" result="BackgroundImageFix"/>
<feGaussianBlur in="BackgroundImageFix" stdDeviation="13"/>
<feComposite in2="SourceAlpha" operator="in" result="effect1_backgroundBlur_55_1093"/>
<feBlend mode="normal" in="SourceGraphic" in2="effect1_backgroundBlur_55_1093" result="shape"/>
</filter>
<filter id="filter2_b_55_1093" x="1603" y="143" width="105" height="160.074" filterUnits="userSpaceOnUse" color-interpolation-filters="sRGB">
<feFlood flood-opacity="0" result="BackgroundImageFix"/>
<feGaussianBlur in="BackgroundImageFix" stdDeviation="13"/>
<feComposite in2="SourceAlpha" operator="in" result="effect1_backgroundBlur_55_1093"/>
<feBlend mode="normal" in="SourceGraphic" in2="effect1_backgroundBlur_55_1093" result="shape"/>
</filter>
<filter id="filter3_b_55_1093" x="1714" y="273" width="75" height="98.0312" filterUnits="userSpaceOnUse" color-interpolation-filters="sRGB">
<feFlood flood-opacity="0" result="BackgroundImageFix"/>
<feGaussianBlur in="BackgroundImageFix" stdDeviation="13"/>
<feComposite in2="SourceAlpha" operator="in" result="effect1_backgroundBlur_55_1093"/>
<feBlend mode="normal" in="SourceGraphic" in2="effect1_backgroundBlur_55_1093" result="shape"/>
</filter>
<filter id="filter4_b_55_1093" x="154" y="277" width="124.024" height="276" filterUnits="userSpaceOnUse" color-interpolation-filters="sRGB">
<feFlood flood-opacity="0" result="BackgroundImageFix"/>
<feGaussianBlur in="BackgroundImageFix" stdDeviation="13"/>
<feComposite in2="SourceAlpha" operator="in" result="effect1_backgroundBlur_55_1093"/>
<feBlend mode="normal" in="SourceGraphic" in2="effect1_backgroundBlur_55_1093" result="shape"/>
</filter>
<filter id="filter5_b_55_1093" x="117" y="221" width="125" height="201.102" filterUnits="userSpaceOnUse" color-interpolation-filters="sRGB">
<feFlood flood-opacity="0" result="BackgroundImageFix"/>
<feGaussianBlur in="BackgroundImageFix" stdDeviation="13"/>
<feComposite in2="SourceAlpha" operator="in" result="effect1_backgroundBlur_55_1093"/>
<feBlend mode="normal" in="SourceGraphic" in2="effect1_backgroundBlur_55_1093" result="shape"/>
</filter>
<filter id="filter6_b_55_1093" x="235" y="146" width="80" height="109.039" filterUnits="userSpaceOnUse" color-interpolation-filters="sRGB">
<feFlood flood-opacity="0" result="BackgroundImageFix"/>
<feGaussianBlur in="BackgroundImageFix" stdDeviation="13"/>
<feComposite in2="SourceAlpha" operator="in" result="effect1_backgroundBlur_55_1093"/>
<feBlend mode="normal" in="SourceGraphic" in2="effect1_backgroundBlur_55_1093" result="shape"/>
</filter>
<linearGradient id="paint0_linear_55_1093" x1="1698.01" y1="411" x2="1754.52" y2="424.347" gradientUnits="userSpaceOnUse">
<stop stop-color="white" stop-opacity="0.2"/>
<stop offset="1" stop-color="white" stop-opacity="0"/>
</linearGradient>
<linearGradient id="paint1_linear_55_1093" x1="1731.22" y1="471.365" x2="1714.81" y2="471.53" gradientUnits="userSpaceOnUse">
<stop stop-color="white"/>
<stop offset="1" stop-color="#EFEFEF" stop-opacity="0"/>
</linearGradient>
<linearGradient id="paint2_linear_55_1093" x1="1674" y1="411" x2="1698.23" y2="415.095" gradientUnits="userSpaceOnUse">
<stop stop-color="white" stop-opacity="0.5"/>
<stop offset="1" stop-color="white" stop-opacity="0"/>
</linearGradient>
<linearGradient id="paint3_linear_55_1093" x1="1611" y1="219" x2="1716.37" y2="257.304" gradientUnits="userSpaceOnUse">
<stop stop-color="white" stop-opacity="0.2"/>
<stop offset="1" stop-color="white" stop-opacity="0"/>
</linearGradient>
<linearGradient id="paint4_linear_55_1093" x1="1677.41" y1="297.408" x2="1644.6" y2="297.917" gradientUnits="userSpaceOnUse">
<stop stop-color="white"/>
<stop offset="1" stop-color="#EFEFEF" stop-opacity="0"/>
</linearGradient>
<linearGradient id="paint5_linear_55_1093" x1="1563" y1="219" x2="1609.67" y2="231.141" gradientUnits="userSpaceOnUse">
<stop stop-color="white" stop-opacity="0.5"/>
<stop offset="1" stop-color="white" stop-opacity="0"/>
</linearGradient>
<linearGradient id="paint6_linear_55_1093" x1="1655.5" y1="169" x2="1713.65" y2="190.178" gradientUnits="userSpaceOnUse">
<stop stop-color="white" stop-opacity="0.2"/>
<stop offset="1" stop-color="white" stop-opacity="0"/>
</linearGradient>
<linearGradient id="paint7_linear_55_1093" x1="1692.16" y1="212.204" x2="1674.05" y2="212.486" gradientUnits="userSpaceOnUse">
<stop stop-color="white"/>
<stop offset="1" stop-color="#EFEFEF" stop-opacity="0"/>
</linearGradient>
<linearGradient id="paint8_linear_55_1093" x1="1629" y1="169" x2="1654.76" y2="175.714" gradientUnits="userSpaceOnUse">
<stop stop-color="white" stop-opacity="0.5"/>
<stop offset="1" stop-color="white" stop-opacity="0"/>
</linearGradient>
<linearGradient id="paint9_linear_55_1093" x1="1751.5" y1="299" x2="1776.62" y2="308.322" gradientUnits="userSpaceOnUse">
<stop stop-color="white" stop-opacity="0.2"/>
<stop offset="1" stop-color="white" stop-opacity="0"/>
</linearGradient>
<linearGradient id="paint10_linear_55_1093" x1="1767.41" y1="317.402" x2="1759.55" y2="317.526" gradientUnits="userSpaceOnUse">
<stop stop-color="white"/>
<stop offset="1" stop-color="#EFEFEF" stop-opacity="0"/>
</linearGradient>
<linearGradient id="paint11_linear_55_1093" x1="1740" y1="299" x2="1751.15" y2="301.962" gradientUnits="userSpaceOnUse">
<stop stop-color="white" stop-opacity="0.5"/>
<stop offset="1" stop-color="white" stop-opacity="0"/>
</linearGradient>
<linearGradient id="paint12_linear_55_1093" x1="216.012" y1="303" x2="300.687" y2="323.22" gradientUnits="userSpaceOnUse">
<stop stop-color="white" stop-opacity="0.2"/>
<stop offset="1" stop-color="white" stop-opacity="0"/>
</linearGradient>
<linearGradient id="paint13_linear_55_1093" x1="265.836" y1="392.548" x2="241.218" y2="392.799" gradientUnits="userSpaceOnUse">
<stop stop-color="white"/>
<stop offset="1" stop-color="#EFEFEF" stop-opacity="0"/>
</linearGradient>
<linearGradient id="paint14_linear_55_1093" x1="180" y1="303" x2="216.321" y2="309.208" gradientUnits="userSpaceOnUse">
<stop stop-color="white" stop-opacity="0.5"/>
<stop offset="1" stop-color="white" stop-opacity="0"/>
</linearGradient>
<linearGradient id="paint15_linear_55_1093" x1="179.5" y1="247" x2="259.621" y2="276.133" gradientUnits="userSpaceOnUse">
<stop stop-color="white" stop-opacity="0.2"/>
<stop offset="1" stop-color="white" stop-opacity="0"/>
</linearGradient>
<linearGradient id="paint16_linear_55_1093" x1="229.998" y1="306.606" x2="205.05" y2="306.994" gradientUnits="userSpaceOnUse">
<stop stop-color="white"/>
<stop offset="1" stop-color="#EFEFEF" stop-opacity="0"/>
</linearGradient>
<linearGradient id="paint17_linear_55_1093" x1="143" y1="247" x2="178.484" y2="256.235" gradientUnits="userSpaceOnUse">
<stop stop-color="white" stop-opacity="0.5"/>
<stop offset="1" stop-color="white" stop-opacity="0"/>
</linearGradient>
<linearGradient id="paint18_linear_55_1093" x1="275" y1="172" x2="305.712" y2="183.197" gradientUnits="userSpaceOnUse">
<stop stop-color="white" stop-opacity="0.2"/>
<stop offset="1" stop-color="white" stop-opacity="0"/>
</linearGradient>
<linearGradient id="paint19_linear_55_1093" x1="294.369" y1="194.802" x2="284.8" y2="194.951" gradientUnits="userSpaceOnUse">
<stop stop-color="white"/>
<stop offset="1" stop-color="#EFEFEF" stop-opacity="0"/>
</linearGradient>
<linearGradient id="paint20_linear_55_1093" x1="261" y1="172" x2="274.606" y2="175.55" gradientUnits="userSpaceOnUse">
<stop stop-color="white" stop-opacity="0.5"/>
<stop offset="1" stop-color="white" stop-opacity="0"/>
</linearGradient>
<clipPath id="clip0_55_1093">
<rect width="48" height="151" fill="white" transform="translate(1674 411)"/>
</clipPath>
<clipPath id="clip1_55_1093">
<rect width="96" height="196" fill="white" transform="translate(1563 219)"/>
</clipPath>
<clipPath id="clip2_55_1093">
<rect width="53" height="108" fill="white" transform="translate(1629 169)"/>
</clipPath>
<clipPath id="clip3_55_1093">
<rect width="23" height="46" fill="white" transform="translate(1740 299)"/>
</clipPath>
<clipPath id="clip4_55_1093">
<rect width="72" height="224" fill="white" transform="translate(180 303)"/>
</clipPath>
<clipPath id="clip5_55_1093">
<rect width="73" height="149" fill="white" transform="translate(143 247)"/>
</clipPath>
<clipPath id="clip6_55_1093">
<rect width="28" height="57" fill="white" transform="translate(261 172)"/>
</clipPath>
</defs>
</svg>
